PathFileType  4	(X/Y/Z) C:\Users\antoi\Documents\MyRepositories\mobilecap\ResultsAnalysis
DataRate	CameraRate	NumFrames	NumMarkers	Units	OrigDataRate	OrigDataStartFrame	OrigNumFrames
100.0	100.0	4	51	mm	100.0	66	131
Frame#	Time	r_knee			r_shank_antsup			r_ankle			r_calc			r_5meta			r_toe			L_knee			L_shank_antsup			L_ankle			L_calc			L_5meta			L_toe			r_sh2			r_sh3			r_sh4			L_sh2			L_sh3			r_thigh1			r_thigh2			r_thigh3			r_thigh4			r_thigh5			L_thigh1			L_thigh2			L_thigh3			L_thigh4			r.ASIS			r.PSIS			L.ASIS			L.PSIS			C7			R_Shoulder			L_Shoulder			R_Sternum			L_Sternum			R_humerus			R_elbow_med			R_elbow_lat			R_forearm			R_wrist_radius			R_wrist_ulna			L_humerus			L_elbow_med			L_elbow_lat			L_forearm			L_wrist_radius			L_wrist_ulna			R_HJC			L_HJC			R_HJC_reg			L_HJC_reg			
		X1	Y1	Z1	X2	Y2	Z2	X3	Y3	Z3	X4	Y4	Z4	X5	Y5	Z5	X6	Y6	Z6	X7	Y7	Z7	X8	Y8	Z8	X9	Y9	Z9	X10	Y10	Z10	X11	Y11	Z11	X12	Y12	Z12	X13	Y13	Z13	X14	Y14	Z14	X15	Y15	Z15	X16	Y16	Z16	X17	Y17	Z17	X18	Y18	Z18	X19	Y19	Z19	X20	Y20	Z20	X21	Y21	Z21	X22	Y22	Z22	X23	Y23	Z23	X24	Y24	Z24	X25	Y25	Z25	X26	Y26	Z26	X27	Y27	Z27	X28	Y28	Z28	X29	Y29	Z29	X30	Y30	Z30	X31	Y31	Z31	X32	Y32	Z32	X33	Y33	Z33	X34	Y34	Z34	X35	Y35	Z35	X36	Y36	Z36	X37	Y37	Z37	X38	Y38	Z38	X39	Y39	Z39	X40	Y40	Z40	X41	Y41	Z41	X42	Y42	Z42	X43	Y43	Z43	X44	Y44	Z44	X45	Y45	Z45	X46	Y46	Z46	X47	Y47	Z47	X48	Y48	Z48	X49	Y49	Z49	X50	Y50	Z50	X51	Y51	Z51	

66	0.65000000	581.21740	449.05339	-56.90271	583.71720	382.68155	-65.42249	278.89842	181.04453	-114.66570	216.29692	194.72472	-168.21778	329.47711	44.83105	-84.73927	378.07785	49.77711	-136.60764	807.77920	485.70847	-334.73758	854.27491	405.73192	-339.09153	836.96937	89.54651	-279.56280	779.31659	57.04955	-223.76503	961.33311	41.00380	-300.15352	1005.05420	67.15745	-247.73086	502.88155	302.76029	-85.83227	529.07312	428.11295	-36.20873	444.77348	348.64534	-40.75100	766.52808	400.59901	-359.34800	781.55227	280.40401	-345.10354	725.30310	732.37742	-104.96783	718.14610	619.07717	-100.16425	694.16986	600.84714	-40.31639	651.05287	733.79254	-18.09317	645.39871	620.61232	-18.64074	731.76126	802.75802	-370.17290	785.32529	670.16150	-370.53571	627.12670	759.97986	-376.34478	675.88045	634.48560	-358.54246	716.64613	918.54049	-70.26214	527.84132	952.98721	-152.03949	733.85986	918.47194	-306.25364	529.80319	954.32919	-250.17402	584.37829	1430.38294	-218.15635	634.88263	1399.64958	-58.23231	638.88315	1365.71200	-379.32263	691.15039	1327.70080	-197.74627	692.67044	1322.25406	-236.91541	684.47772	1182.69093	45.86803	648.98181	1071.38279	35.88405	687.77840	1095.64020	85.17536	824.68374	1053.84084	58.04883	916.13700	1027.06351	14.38262	912.12900	997.31976	47.48042	568.98231	1136.79182	-445.63022	510.09635	1048.06929	-385.24022	515.41514	1050.88969	-444.39832	529.57638	912.28667	-483.11448	540.62131	801.08117	-477.17555	496.62793	808.70228	-486.57233	645.55755	837.01420	-109.75682	643.60366	847.76823	-300.08411	652.37605	846.71206	-105.26353	655.50460	848.82479	-261.41092	
67	0.66000000	606.77666	447.89196	-55.63241	608.06046	381.58469	-63.89770	296.54816	192.19043	-112.30978	236.07376	212.05171	-165.79267	334.61475	50.80287	-84.17419	383.44695	51.58607	-135.78620	818.52143	486.78284	-335.54773	863.28186	405.50131	-339.65508	837.84685	89.71472	-279.46804	779.51626	57.39055	-223.92981	961.51615	40.76511	-300.23450	1005.40418	65.68832	-247.47665	524.10864	304.31104	-84.23080	555.18044	428.94948	-34.58938	468.31355	352.33323	-39.00211	775.58717	402.33674	-360.42854	787.56730	281.92735	-345.97426	741.82742	733.83464	-105.95333	738.26554	620.42143	-99.99214	715.02802	602.04619	-39.74733	667.89934	733.87515	-18.87839	665.86133	620.80016	-18.37540	744.84090	804.80327	-371.26681	797.65932	672.10325	-371.65682	639.99565	762.68316	-378.19192	688.08112	636.88989	-360.65680	731.16152	919.17876	-72.44761	541.35561	953.94936	-151.93467	746.94991	920.92033	-307.63399	543.03324	956.31502	-250.22828	597.50231	1431.83463	-219.28924	647.66161	1401.60086	-59.05893	652.37056	1367.17590	-380.13113	704.33698	1329.42145	-198.47074	705.95230	1323.87317	-237.58782	692.70934	1182.75720	44.75001	655.06914	1072.48048	33.40104	693.83244	1095.39602	83.32890	829.75940	1049.12752	57.59801	920.74604	1019.11778	14.80567	915.29606	989.69946	47.93359	585.64617	1137.24275	-446.17680	528.23947	1047.65155	-385.56618	533.35274	1050.41458	-444.76341	550.29328	912.01107	-483.28321	563.88105	801.13281	-477.39803	519.68988	807.76610	-486.43106	659.82449	837.84879	-111.57307	656.58398	850.16203	-301.79613	666.63399	847.44571	-107.87557	669.29254	851.17544	-263.41021	
68	0.67000000	633.11172	447.20486	-54.44857	633.37301	381.00248	-62.81581	315.93903	203.46713	-110.13524	258.12497	229.06190	-163.64822	341.49636	58.24307	-83.34165	390.44800	54.45011	-134.57216	828.06647	487.50133	-336.38293	871.38054	405.11059	-340.21324	838.46338	89.88635	-279.39753	779.55208	57.72595	-224.13476	961.57587	40.79617	-300.31291	1005.59859	64.73238	-247.30619	546.64069	306.29874	-83.00100	582.32348	429.89870	-32.82086	493.17502	355.96901	-37.17081	783.75158	403.76589	-361.41950	792.92194	283.20313	-346.77450	758.25996	735.81664	-106.74574	758.34245	622.38291	-99.74095	735.86575	603.80377	-39.14635	684.49589	734.29782	-19.56355	686.41100	621.54136	-18.06695	757.53273	806.39154	-372.54047	809.04829	673.46803	-373.01924	652.29742	765.44339	-379.80455	699.23868	639.21822	-362.39264	745.10407	920.05100	-74.31894	554.49840	955.12892	-152.00349	759.76549	923.39628	-308.94760	555.92935	958.47867	-250.44462	610.54459	1433.46248	-220.31169	660.34948	1403.74285	-59.83138	665.82739	1368.91546	-380.82063	717.41730	1331.36098	-199.08645	719.16531	1325.73423	-238.15096	700.70057	1183.11953	43.68182	660.95460	1073.98908	30.84437	699.59499	1095.46712	81.44128	834.29711	1044.37086	57.18739	924.65077	1010.87922	15.31402	917.61259	981.85021	48.43145	602.42301	1138.03099	-446.73104	546.43634	1047.53010	-386.02558	551.40289	1050.25548	-445.25484	571.62298	912.10638	-483.45764	587.97372	801.68822	-477.45801	543.66565	807.13383	-486.33198	673.53729	838.91325	-113.27581	669.28290	852.63070	-303.39591	680.40298	848.29611	-110.22209	682.65832	853.56878	-265.30281	
69	0.68000000	659.94108	447.15985	-53.41126	659.37660	381.01477	-62.20706	336.72401	214.60932	-108.27681	281.91199	245.07403	-162.08163	350.59452	66.92029	-82.12665	399.57660	58.46840	-132.76964	836.38058	487.83821	-337.20876	878.50869	404.54059	-340.78165	838.90971	90.02529	-279.34314	779.49732	58.07317	-224.35650	961.59502	40.90335	-300.37154	1005.76886	64.10560	-247.18546	570.25216	308.74077	-82.15290	610.12479	431.07925	-31.03934	518.96777	359.60957	-35.38606	790.92372	404.84257	-362.22859	797.58828	284.18059	-347.42271	774.59809	738.34102	-107.34696	778.24745	624.98117	-99.44585	756.51275	606.14297	-38.56606	700.79555	735.11094	-20.16025	706.87348	622.88324	-17.75095	769.80482	807.52597	-373.93260	819.47308	674.22974	-374.55779	664.02296	768.22836	-381.13924	709.30622	641.46879	-363.64949	758.41477	921.15220	-75.70719	567.29167	956.48295	-152.31189	772.36809	925.77032	-310.07505	568.52109	960.82277	-250.88204	623.48954	1435.22929	-221.23172	672.93148	1405.98882	-60.52768	679.30676	1370.85226	-381.39373	730.38100	1333.44772	-199.58124	732.29115	1327.76046	-238.59469	708.50279	1183.72626	42.68994	666.72774	1075.81615	28.29301	705.14945	1095.79888	79.55411	838.34289	1039.59245	56.83244	927.88177	1002.42649	15.91083	919.13836	973.85907	48.97264	619.28930	1139.09581	-447.29070	564.69168	1047.59729	-386.61760	569.51886	1050.36917	-445.86587	593.49990	912.53907	-483.63214	612.80748	802.76652	-477.34103	568.45492	806.80201	-486.23859	686.62508	840.19364	-114.76570	681.77057	855.07923	-304.79560	693.70707	849.11054	-112.18074	695.63736	855.92973	-267.00183	
